<?xml version="1.0" encoding="UTF-8"?>
<svg version="1.1" viewBox="0 0 1356 1172" width="339" height="293" xmlns="http://www.w3.org/2000/svg">
<path transform="translate(621,311)" d="m0 0h62l1 1 1 33 15 7 16 9 14 10 13 12 10 10 11 15 12 21 1 6-6 3-4-2-10-17-12-16-12-13-14-11-13-8-15-8-7-3v265l-4-1-25-14-31-15-4-2v-248l-45 1-23 2-26 5-19 7-12 7-9 7-8 7-10 13-9 17-5 15-3 15-1 9v27l4 21 6 15 8 15 9 12 11 12 9 8 13 10 19 12 18 10 25 12 34 14 20 9 16 8 17 9 17 11 14 10 11 9 8 7-2 11-14 59-1 2-3-1-6-9-11-13-11-10-17-12-15-9-23-12-35-16-27-12-38-18-20-11-18-12-10-8-10-9-5-4-7-8-10-13-9-15-7-17-4-13-3-14-1-7v-40l4-24 6-20 9-19 8-12 8-10 15-15 16-11 14-8 21-8 23-6 26-4 27-2h41v-19z" fill="#BE9D71"/>
<path transform="translate(672,274)" d="m0 0h29l17 3 16 5 14 6 15 9 13 10 9 8 9 11 8 11 10 19 8 22 6 24 4 26 2 30 1 28 1 12 6-1 16-7 11-7 4-4h2l1-3h2l-1 5-8 10-13 13-10 7-5 3 1 5 8 11 9 10 8 8 11 9 13 11 12 9 19 14 12 9 10 9 5 6 1 3v8l-6 8-10 7-21 11-6 7 1 8 6 9 9 13 3 7v10l-7 9-16 14v2l14 6 4 4 1 2v8l-3 5-10 13-5 11-1 3v15l4 15 6 16 6 18v10l-3 7-6 8-13 8-14 5-16 3-8 1h-24l-20-1h-13l-26 2-22 4-19 5-17 6-8 5-14 11-14 9-16 8-14 6-15 5-26 6-28 3h-29l-33-4-24-6-20-7-16-8-15-9-14-11-13-12-9-11-9-13-9-16-8-20-6-21-3-17-1-9v-17l3-1 2 1 4 30 5 20 6 15 7 13 8 11 9 10 9 9 15 10 14 7 18 6 18 3 11 1h14l21-3 15-4 16-8 13-10 7-7 8-11 8-15 6-17 4-15 4-24 2-26 1-44h4l17 12 12 11 8 9 7 11 7 16v9l-7 24-7 17-8 16-7 11-10 13-14 14-15 11-17 9-19 7-21 5-12 2-11 1h-30l-25-3-3-1 4 4 18 8 19 6 20 4 20 2h14l24-2 24-5 22-8 16-9 11-8 12-11 11-14 7-11 8-19 5-20 2-14v-23l-3-19v-7l11-47 12-51 9-37 7-31 3-11 2-9v-10l-3-4v-7l7-15 2-8h2v7l-1 9 13 10 5 6v5l-4 1-8-6-3-2-5-1v6l5 2 12 7v6l-3 1-13-9-3-1v6l9 6 8 4-1 8-5-2-10-7-3-1v6l9 6 7 3-1 10-3 13-9 47-7 34v7l5 11 6 20 3 19v29l-3 21-6 21-6 15 11-2 21-4 24-2h17l18 1h24l15-3 10-3-8-25-1-5v-26l4-18 6-15 6-12-2-5-4-8-2-7v-9l4-10 9-10 3-5-10-14-7-15-1-3v-19l6-12 9-9 6-4-4-4-10-8-14-12-17-16-7-8-12-15-8-13-7-15-4-13-2-15v-25l3-40v-18l-3-24-5-18-8-18-9-16-9-12-9-10-11-10-10-7-14-8-16-7-17-5-10-2-11-1h-37l2-2zm72 340-1 4 5 5 8 5 5-1-1-5-10-7zm-3 13-1 5 5 4 8 5h4v-6l-10-7zm-2 13-1 1v5l12 8h4l1-5-12-9zm-3 12-1 6 8 6 7 4h2l1-5-10-8-5-3zm-19 103-4 5-1 4 3 6 3 2h7l5-4 1-6-3-5-2-2z" fill="#88643A"/>
<path transform="translate(621,311)" d="m0 0h62l1 1 1 33 15 7 16 9 14 10 13 12 10 10 11 15 12 21 1 6-6 3-4-2-10-17-12-16-12-13-14-11-13-8-15-8-7-3v265l-4-1-25-14-31-15-4-2 1-2 1-12v-16l1-38v-70l-1-41v-57l-2-23v-22z" fill="#BE9D70"/>
<path transform="translate(672,274)" d="m0 0h29l17 3 16 5 14 6 15 9 13 10 9 8 9 11 8 11 10 19 8 22 6 24 4 26 2 30 1 28 1 12 6-1 16-7 11-7 4-4h2l1-3h2l-1 5-8 10-13 13-10 7-5 3 1 5 8 11 9 10 8 8 11 9 13 11 12 9 19 14 12 9 10 9 5 6 1 3v8l-6 8-10 7-21 11-6 7 1 8 6 9 9 13 3 7v10l-7 9-16 14v2l14 6 4 4 1 2v8l-3 5-10 13-5 11-1 3v15l4 15 6 16 6 18v10l-3 7-6 8-13 8-14 5-16 3h-6l-2-3-5-17-2-4v-4l-4-2v-1l19-2 14-4 4-1-8-25-1-5v-26l4-18 6-15 6-12-2-5-4-8-2-7v-9l4-10 9-10 3-5-10-14-7-15-1-3v-19l6-12 9-9 6-4-4-4-10-8-14-12-17-16-7-8-12-15-8-13-7-15-4-13-2-15v-25l3-40v-18l-3-24-5-18-8-18-9-16-9-12-9-10-11-10-10-7-14-8-16-7-17-5-10-2-11-1h-37l2-2z" fill="#BE9D71"/>
<path transform="translate(494,561)" d="m0 0h5l7 6 18 12 21 12 27 13 34 14 20 9 16 8 17 9 17 11 14 10 11 9 8 7-2 11-14 59-1 2-3-1-6-9-11-13-11-10-17-12-15-9-23-12-35-16-27-12-38-18-13-7-2-9 1-5-1-13 1-3v-24l2-12 1-3z" fill="#876339"/>
<path transform="translate(621,727)" d="m0 0 4 2 16 11 12 11 8 9 7 11 7 16v9l-7 24-7 17-8 16-7 11-10 13-14 14-15 11-17 9-19 7-21 5-12 2-11 1h-30l-25-3-3-1 4 4 18 8 19 6 20 4 33 3-1 4-2 1v4l21 1v1h-29l-33-4-24-6-20-7-16-8-15-9-14-11-13-12-9-11-9-13-9-16-8-20-6-21-3-17-1-9v-17l3-1 2 1 4 30 5 20 6 15 7 13 8 11 9 10 9 9 15 10 14 7 18 6 18 3 11 1h14l21-3 15-4 16-8 13-10 7-7 8-11 8-15 6-17 4-15 4-24 2-26 1-44z" fill="#BE9D70"/>
<path transform="translate(614,622)" d="m0 0 10 4 16 8 19 10 17 11 14 10 11 9 8 7-2 11-14 59-1 2-3-1-6-9-11-13-11-10-17-12-15-9-17-9 4-1-1-5-1-4-1-20v-7l-1-6 2-10v-9-3z" fill="#BE9D71"/>
<path transform="translate(373,776)" d="m0 0 4 1 4 30 5 20 6 15 7 13 8 11 9 10 9 9 15 10 14 7 18 6 18 3 11 1h14l21-3 15-4 12-6 2 1-3 1v2h-2l-2 7-1 4 4 3h10l-3 2-24 5-17 2h-30l-25-3-3-1 4 4 18 8 19 6 20 4 33 3-1 4-2 1v4l21 1v1h-29l-33-4-24-6-20-7-16-8-15-9-14-11-13-12-9-11-9-13-9-16-8-20-6-21-3-17-1-9v-17z" fill="#FEFBDC"/>
<path transform="translate(672,274)" d="m0 0h29l17 3 16 5 14 6 15 9 13 10 9 8 9 11 8 11 10 19 8 22 6 24 4 26 2 30 1 28 1 12 6-1 16-7 11-7 4-4h2l1-3h2l-1 5-8 10-13 13-10 7-5 3 1 5 8 11 4 5-1 5h-2l-2 10v7l2 6-2 3-4-2-12-17-9-19-4-13-2-15v-25l3-40v-18l-3-24-5-18-8-18-9-16-9-12-9-10-11-10-10-7-14-8-16-7-17-5-10-2-11-1h-37l2-2z" fill="#A48153"/>
<path transform="translate(432,391)" d="m0 0 1 2-1 7-3 1 1 5-1 6v13l1 13 1 9-1 6v114l3 14-1 3-10-14-8-16-6-15-5-22-1-7v-40l4-24 6-20 9-19 8-12z" fill="#FEFADB"/>
<path transform="translate(579,331)" d="m0 0h41l1 3 2 24v63l1 45v68l-1 30v15l-1 12-2 1v-247l-45 1-23 2-26 5-19 7-12 7h-5l-3-3-2-1 1-10-2-2 10-5 23-7 26-5z" fill="#89653B"/>
<path transform="translate(689,881)" d="m0 0h3l1 4-2 4v7l-2 5-1 9 4 3v2h3v3l2 1-15 10-15 8-25 10-23 6-18 3-8 1h-33l-1-5 3-1 1-4 1-1 24-2 24-5 22-8 16-9 11-8 12-11 11-14z" fill="#A38052"/>
<path transform="translate(577,607)" d="m0 0 5 1 31 13 2 4v3 9l-2 12 1 4v11l1 16v3l2 2-1 4h-6l-28-13 2-5v-8l-1-3v-29l2-9-3-11z" fill="#A38052"/>
<path transform="translate(494,561)" d="m0 0h5l7 6 18 12 2 2-2 3-1 3h-2l-1 10 1 7-1 18-2 16 3 9-5-1-23-12-2-9 1-5-1-13 1-3v-24l2-12 1-3z" fill="#A38052"/>
<path transform="translate(799,855)" d="m0 0h17l30 2 3 2 5 12 4 14 1 3-2 1h-24l-20-1 4-1v-2h-9l-1-7 1-4-2-7-3-10z" fill="#A38052"/>
<path transform="translate(656,756)" d="m0 0h2l9 13 8 18v9l-7 24-7 17-9 18-4 1-2-3 2-3h2l-1-6v-4l1-12-1-2 2-24v-8l1-6v-14l2-10v-6z" fill="#A38153"/>
<path transform="translate(688,347)" d="m0 0 6 2 14 7 18 12 13 11 14 14 11 15 12 21 1 6-6 3-4-2-10-17-12-16-12-13-14-11-13-8-15-8-5-2 3-1 1-6z" fill="#FEFBDC"/>
<path transform="translate(753,546)" d="m0 0h2v7l-1 9 13 10 5 6v5l-4 1-8-6-3-2-5-1v6l5 2 12 7v6l-3 1-13-9-3-1v6l9 6 8 4-1 8-5-2-10-7-3-1v6l9 6 7 3-1 10-3 13-3 15h-3v-5l-11-8h-4l-2 4-2-4 7-31 3-11 2-9v-10l-3-4v-7l7-15zm-9 68-1 4 5 5 8 5 5-1-1-5-10-7zm-3 13-1 5 5 4 8 5h4v-6l-10-7z" fill="#8F6B41"/>
<path transform="translate(650,922)" d="m0 0 1 2-4 4-2 1 1 3-2 3 1 3h5l5 3-2 2-18 6-26 6-16 2h-33l-1-5 3-1 1-4 1-1 24-2 24-5 22-8z" fill="#BF9F72"/>
<path transform="translate(579,331)" d="m0 0h41l1 3 2 24v63l1 45v68l-1 30v15l-1 12-2 1v-247h-31v-1h6l1-7-1-5h-16z" fill="#997549"/>
<path transform="translate(780,470)" d="m0 0 4 2 4 9v9l-5 22-4 14-5 7-3 12-4 18-2 1-5-3-1-4 11-52 7-29z" fill="#8B673D"/>
<path transform="translate(672,274)" d="m0 0h29l17 3 16 5 14 6 7 6 11 7 12 11 7 7 7 8 9 12 3 6v2h2l-1 3-2 1v-2h-2v-2l-4-1-11-16-11-12-10-9-10-7-14-8-16-7-17-5-10-2-11-1h-37l2-2z" fill="#8F6C41"/>
<path transform="translate(753,546)" d="m0 0h2v7l-1 9 13 10 5 6v5l-4 1-8-6-3-2-5-1v6l5 2 12 7v6l-3 1-13-9-4-1-3-9-2-2v-7l7-15z" fill="#8D6A3F"/>
<path transform="translate(506,342)" d="m0 0h3l2 7-1 3 3-1 4 4-3 2-16 8-3 2h-5l-3-3-2-1 1-10-2-2 10-5z" fill="#A48153"/>
<path transform="translate(780,470)" d="m0 0 4 2 4 9v9l-5 22-4 14h-1v-7l-2-8 1-22h-3l4-16z" fill="#C0A074"/>
<path transform="translate(689,665)" d="m0 0 6 4 14 12-2 11-8 34h-2v-10l1-2-2-6v-7l1-5v-7l-2-10-5-8z" fill="#FEFBDC"/>
<path transform="translate(579,331)" d="m0 0h41l1 3 1 13v10h-1l-1-12h-31v-1h6l1-7-1-5h-16z" fill="#A58254"/>
<path transform="translate(373,776)" d="m0 0 4 1 4 30-1 3v-2l-3 1v7l-2-1-3-21v-17z" fill="#FEFEFE"/>
<path transform="translate(748,585)" d="m0 0 2 2v6l9 6 8 4-1 8-5-2-10-7-3-1-1 6-4 2 4-19z" fill="#906D42"/>
<path transform="translate(774,489)" d="m0 0h3v24l2 7-2 9-2 1v-3l-2-1-1-9 1-1-1-11-1-4z" fill="#A38052"/>
<path transform="translate(672,274)" d="m0 0h29l8 1v1h-10l-2 1-30 2h-17l2-2z" fill="#A48153"/>
<path transform="translate(745,607)" d="m0 0 5 1 7 5 7 3-1 10-7-6-8-5h-5v-6z" fill="#8D693F"/>
<path transform="translate(764,533)" d="m0 0h1l1 10 1 3 1 6 1 2-2 9-2 1-5-3-1-4z" fill="#C6A97E"/>
<path transform="translate(752,291)" d="m0 0 10 5 14 11 9 8 9 11 8 11 1 3-2 1-7-10-9-10-7-8-8-8-13-9-5-3z" fill="#C1A276"/>
<path transform="translate(780,470)" d="m0 0 4 2 4 9v9l-3 14-2-1v-8l-1-9 1-3-3-1 2-8-4 1z" fill="#FAF4D4"/>
<path transform="translate(759,302)" d="m0 0 7 4 25 25 5 9 3 4-2 2-11-16-11-12-10-9-7-5z" fill="#AE8B5E"/>
<path transform="translate(766,524)" d="m0 0 2 4 1 3-1 2h2l1 12-2 7-2 1-1-9-1-3v-13z" fill="#A58254"/>
<path transform="translate(874,476)" d="m0 0h2l-1 5-8 10-4 3-2-7 8-6 4-2z" fill="#C1A276"/>
<path transform="translate(665,275)" d="m0 0 5 1-3 3h-17l2-2z" fill="#AB8A5D"/>
<path transform="translate(759,302)" d="m0 0 7 4 9 9h-3l-14-11z" fill="#A78456"/>
<path transform="translate(802,340)" d="m0 0 4 4 5 10-1 2-3-4-3-1 2-4h-2l-3-6z" fill="#AD8B5E"/>
<path transform="translate(699,275)" d="m0 0 10 1-2 3-20-1v-1l10-1z" fill="#876339"/>
<path transform="translate(801,342)" d="m0 0 3 3v2h2l-1 3-2 1v-2h-2v-2h-3l1-3h2z" fill="#8A663C"/>
<path transform="translate(709,276)" d="m0 0 9 1-2 1v2l-9-1-2-2z" fill="#A38153"/>
</svg>
