<?xml version="1.0" encoding="UTF-8"?>
<svg version="1.1" viewBox="0 0 2192 1184" width="548" height="296" xmlns="http://www.w3.org/2000/svg">
<path transform="translate(1081,114)" d="m0 0h62l2 4v30l24 12 18 12 15 13 9 9 13 17 12 21 2 4-1 4-6 3-4-2-10-17-9-13-12-13-7-7-17-12-18-10-10-4 1 2v261l-2 3-11-7-22-12-28-13-3-3v-247l-19 1-29 1-29 3-21 5-17 7-11 7-11 9-9 10-9 14-7 16-5 21-2 19v11l2 17 4 15 5 13 8 15 13 16 11 11 11 9 16 11 17 10 21 11 20 9 27 11 23 10 19 10 18 10 19 13 12 9 13 11-1 11-14 58-2 5-3-1-7-11-12-13-11-10-16-11-13-8-25-13-36-16-39-18-25-12-18-10-14-9-16-12-13-12-7-7-10-13-10-16-7-16-6-21-3-19v-32l3-21 5-19 6-16 8-15 7-10 9-11 11-11 11-8 16-10 18-8 20-6 25-5 27-3 19-1h33v-17z" fill="#FDFDFD"/>
<path transform="translate(1135,77)" d="m0 0h22l19 3 17 5 18 8 13 8 14 11 14 14 11 16 9 17 8 21 7 28 4 28 1 13 2 53 15-5 13-7 10-8 1-2h4l-2 6-12 14-12 11-10 6h-2l3 8 8 11 18 18 11 9 17 14 14 10 19 14 14 12 5 7 1 9-4 6-9 8-24 13-5 5-2 5 3 8 12 16 4 8 1 9-3 7-11 11-8 7-1 3 12 5 5 4 2 9-3 7-7 8-6 10-4 12v9l4 17 11 29 2 9-1 10-6 9-8 7-14 7-14 4-22 3h-20l-2-1h-43l-24 3-26 6-21 7-10 6-9 8-17 11-17 9-21 8-17 5-20 4-27 3h-21l-22-2-24-4-22-6-25-10-19-11-13-10-12-11-9-9-11-15-9-15-8-18-6-18-5-23-2-20v-8l1-3h5l1 2 3 26 5 21 6 16 7 13 10 14 5 5v2h2l4 4v2l4 2 10 8 21 11 16 5 16 3 10 1h22l19-3 16-5 15-8 10-8 9-9 7-10 8-16 6-16 5-21 3-23 1-16 1-42 1-7 2-1 14 10 14 11 7 7 10 14 7 15 2 6-1 9-6 21-8 20-10 19-12 16-11 12-10 9-15 10-19 9-18 6-24 5-23 2h-13l-24-2-11-1 14 7 14 5 19 5 18 3 11 1h19l24-2 19-4 18-6 19-9 14-10 12-11 11-13 9-16 6-14 4-13 3-18v-31l-3-16 1-8 9-39 17-71 6-27 9-36 3-14-1-8-3-4 1-7 7-17 2-6h2v9l-1 7 16 13 2 2v8l-3 1-11-8-5-1v5l5 2 11 6 1 5-2 4-1 11-2 6-3 19-5 23-6 31-7 37 6 15 5 16 3 17 1 13v13l-2 19-3 16-8 24-2 4 7-1 20-4 30-3h11l18 1h31l16-4 5-1-4-13-4-14-1-7v-19l4-19 8-21 4-7-1-5-5-10-2-8 1-9 5-10 9-10 1-3-10-15-6-13-2-9v-10l3-10 6-9 10-9 2-2-16-13-10-9-8-7-16-16-11-14-10-15-7-15-4-12-2-12v-37l2-31v-24l-2-18-4-15-6-15-8-16-9-14-7-9-8-9-14-11-14-9-17-8-15-5-14-3-8-1h-42v-3zm77 315-2 5 8 6 3 2h4l1-4-12-9zm-2 1m-1 12-1 1v5l11 7h5v-4l-11-7zm-4 13-1 4 5 5 9 5 3-3-5-5-9-6zm-3 14-1 4 5 4 9 5 2-5-8-6-4-2zm-1 12-2 1v5l10 7h5l1-4-10-7zm-4 13-1 5 8 6 5 3h3l-1-5-9-7zm-19 102-4 5-1 6 4 5 6 1 5-3 3-5-2-5-2-3z" fill="#FEFEFE"/>
<path transform="translate(1245,901)" d="m0 0 23 1 26 4 19 4 4 3 7 45-1 3-4-2-13-17-11-12-7-7-13-9-14-6h-22l-10 4-8 6-6 10-2 5-1 6v9l3 9 6 8 7 6 16 8 19 7 28 10 17 8 10 7 5 4 7 10 4 11 1 5v17l-4 12-6 10-3 4h-2l-2 4-12 8-15 6-25 5h-21l-22-4-12-4-16-8-12-11-7-11-3-10v-3l17-9 20-9 2 1-1 4-6 3-1 5 3 16 8 16 7 7 10 6 13 4 7 1h16l14-4 9-5 8-7 6-12 1-3v-17l-5-12-6-7-11-7-15-7-43-15-16-8-9-6-8-8-7-14-2-10 1-13 4-13 7-10 4-5 10-7 10-5 16-4z" fill="#FEFEFE"/>
<path transform="translate(1710,908)" d="m0 0 4 1 1 77 6-7 10-7 12-4 6-1h16l16 3 16 8 11 10 8 13 5 15 2 19-1 16-4 15-6 12-11 12-11 8-16 6-16 3h-14l-18-4-14-6-11-8-2-1-1 5-6 12-4 1-2-1-1-174-4-4-12-2v-4l25-8zm33 64-11 4-9 7-6 7-2 5-1 6v59l2 11 8 16 9 9 10 5 5 1h9l12-3 9-7 6-8 5-15 2-12v-43l-3-16-5-12-7-8-10-5-3-1z" fill="#FDFDFD"/>
<path transform="translate(806,966)" d="m0 0h5l1 42 8-16 8-10 8-7 12-6 6-2 7-1h14l11 3 9 6 6 7 4 8 1 3 1 92 2 9 5 5 8 3 1 3h-62v-3l11-4 3-3 2-7v-86l-4-11-7-7-13-4h-7l-9 3-10 9-8 14-4 9-3 16v51l2 10 3 6 4 2 7 2v4h-54l-6-2 1-3 9-3 4-7v-104l-4-4-13-1v-3l11-4z" fill="#FCFCFC"/>
<path transform="translate(396,966)" d="m0 0h5l1 43 5-12 7-10 7-8 10-7 13-5 7-1h14l8 2 10 5 7 7 5 9 1 4 1 90 2 10 3 5 10 4v3l-3 1-56-1 1-4 9-3 4-7v-90l-4-10-4-5-8-4-8-2h-7l-10 4-7 6-7 10-7 16-2 10-1 11v39l2 16 4 6 10 4v4h-56l-5-1 1-3 10-4 3-4 2-12v-91l-3-7-2-1-12-1v-3l16-6z" fill="#FEFEFE"/>
<path transform="translate(133,903)" d="m0 0h48l8 1-1 3-12 3-2 4-2 5-1 22-1 137-4 6h-2l-2 4h-2v2l-12 9-9 4-11 2h-54l-2-6-6-35-3-17 1-6 3 1 13 21 13 16 11 12 10 7 5 2h6l6-4 4-6 3-12v-158l-4-8-4-3-9-2v-3z" fill="#F8F8F8"/>
<path transform="translate(991,967)" d="m0 0h16l16 3 16 8 7 5 8 11 3 9 1 85 2 8 4 4h8l6-4 6-15 4 1v6l-4 9-9 8-9 2h-10l-10-3-6-4-7-8-4-13-1-1-6 10-9 9-14 7-13 3-15-1-12-4-9-6-6-7-5-12v-13l3-8 6-8 8-6 12-6 12-4-3-2-10-5-9-8-6-12v-13l3-8 5-6 11-6 13-4zm-2 5-10 4-9 7-6 11-1 5v10l3 7 7 7 12 6 5 1h9l30-2v-29l-4-13-7-9-7-4-4-1zm30 59-19 3-14 5-9 7-4 5-3 7v14l4 10 8 7 5 2h17l10-6 7-7 7-14 1-4v-29z" fill="#FEFEFE"/>
<path transform="translate(2016,967)" d="m0 0h18l14 3 12 5 8 6 5 4 7 11 2 5 1 84 2 11 1 3 3 1h7l6-3 4-7 3-9h3l1 7-3 8-8 8-10 3h-11l-11-4-7-5-6-10-2-5-1-6-6 10-10 10-10 6-16 4h-8l-15-3-10-5-5-4-7-10-3-10v-10l4-10 4-6 9-7 15-7 10-3-3-2-12-6-5-4-6-9-3-8v-10l3-8 7-8 14-7zm-2 5-10 4-10 9-4 8-2 8v7l5 10 7 6 11 5 5 1 18-1 20-1 1-6-1-24-4-13-8-9-10-4zm31 59-19 3-12 4-10 6-6 8-3 9v9l3 9 7 8 8 4h16l11-6 8-9 4-8 2-6 1-30-2-1z" fill="#FEFEFE"/>
<path transform="translate(256,967)" d="m0 0h15l16 3 12 5 8 6 5 5 4 5 4 8 1 4 1 85 3 10 3 2h8l6-4 3-6 3-9h3l1 6-4 10-9 8-8 2h-12l-11-4-8-7-6-12-1-7-6 10-11 11-13 6-13 3-15-1-12-4-11-8-6-9-2-5-1-6v-8l2-9 7-9 10-7 10-5 12-4-2-2-12-6-8-7-5-10-1-3v-12l3-8 5-5 5-4 11-5zm-3 5-10 4-9 7-6 11-1 5v10l4 8 8 7 10 5 4 1h10l9-1 21-1v-30l-3-10-6-9-9-6-4-1zm30 59-19 3-14 5-9 7-6 9-1 3v14l4 10 8 7 5 2h17l9-5 9-9 6-12 1-4v-30z" fill="#FEFEFE"/>
<path transform="translate(1568,967)" d="m0 0h15l16 3 14 6 10 8 6 8 4 10 1 82 2 11 2 4 2 1h7l6-3 3-4 3-11 4-1 1 7-4 9-4 5-8 4-5 1h-11l-10-3-10-9-5-9-2-8-6 9-6 7-10 7-11 4-9 2h-8l-15-3-10-5-6-5-6-9-3-12 1-11 4-9 5-6 11-7 12-5 9-4-12-5-8-6-6-9-3-9v-8l3-9 7-8 11-6 12-3zm-3 5-10 4-10 9-5 11-1 5v7l3 7 6 7 13 7 5 1h10l9-1 20-1v-31l-4-11-4-6-6-5-8-3zm31 59-19 3-10 3-11 6-6 7-3 7-1 4v9l4 11 4 5 9 5h17l8-4 9-8 7-13 1-4v-31z" fill="#FEFEFE"/>
<path transform="translate(582,967)" d="m0 0h15l16 3 12 5 11 8 7 9 4 10 1 85 2 9 4 4h8l6-4 3-6 3-9h3l1 5-3 9-3 5-7 5-9 2h-10l-10-3-6-4v-2h-2l-6-10-4-11-4 8-9 10-9 6-10 4-10 2h-8l-14-3-10-5-9-9-5-10-1-4v-12l4-10 7-8 14-8 16-6-2-2-12-6-6-5-6-10-2-7v-9l4-10 9-8 11-5zm-3 5-12 5-6 5-6 10-2 7v10l4 8 8 7 10 5 4 1h11l9-1 20-1 1-1-1-28-4-13-4-6-6-5-8-3zm31 59-19 3-11 3-11 7-5 6-4 10v11l4 10 7 7 6 3 8 1 9-1 11-6 8-9 4-9 2-7v-29z" fill="#FCFCFC"/>
<path transform="translate(1423,967)" d="m0 0h21l17 3 14 7 5 5 4 7v13l-5 9-8 7-9 4 31 1 9 1 1 4-6 1h-85l-18-1 2 22 4 16 7 14 8 8 12 6 10 2h13l14-3 12-6 11-9 6-9 5-13 4-2 1 5-4 13-7 12-9 9-12 7-11 4-10 2h-25l-16-4-12-5-11-8-9-9-8-14-4-11-2-14 1-17 4-15 7-14 7-9 10-8 14-7 11-3zm1 5-10 5-6 5-6 10-4 10-3 14-1 6 1 1h42l12-4 9-7 5-6 2-5v-10l-4-8-8-7-11-4z" fill="#FAFAFA"/>
<path transform="translate(1883,966)" d="m0 0h5l1 1 1 34 2-1 8-16 9-10 8-5 10-3h7l6 5 11 17 1 5-5-1-9-4-4-1h-9l-9 3-9 7-9 13-5 12-3 16v48l2 8 2 4 11 4 1 3h-61l-1-3 11-4 4-6 1-7v-95l-3-6-7-2-6 1v-4l9-4z" fill="#FEFEFE"/>
<path transform="translate(723,966)" d="m0 0h5l1 121 3 11 10 3 2 1v3l-3 1-55-1 1-3 9-4 3-7v-102l-4-5-13-2v-3l16-6z" fill="#fff"/>
<path transform="translate(159,774)" d="m0 0h12l12 3 11 7 1 3-3 6-5-1-12-6-13-2-9 2-10 6-5 6-4 8-1 5v11l4 10 7 8 6 4 6 2h17l14-7h5l2 2v5l-7 6-10 4-6 1h-15l-13-4-8-6-8-9-5-12-1-6v-8l3-13 6-10 7-7 12-6z" fill="#FEFEFE"/>
<path transform="translate(739,794)" d="m0 0h8l10 3 7 6 3 6 1 17v28l-1 2h-7l-3-3-8 3-6 1h-12l-8-3-6-7-2-6 1-10 3-5 8-4 14-2h16l-1-8-3-5-7-3h-9l-10 3-7 3-3-3 1-5 5-4 8-3zm-1 34-10 3-3 4 1 8 3 4 6 2h7l9-4 5-4 2-6v-5l-3-2z" fill="#FDFDFD"/>
<path transform="translate(410,794)" d="m0 0 8 1 2 5 7-4 16-2 10 2 6 4 5 6 2 5 1 10v20l-1 15h-9l-1-1-1-41-4-6-4-3-4-1h-9l-8 4-4 6-2 9-1 33h-9l-1-1v-60z" fill="#FEFEFE"/>
<path transform="translate(630,794)" d="m0 0h10l10 3 6 4 4 5-2 5-5 1-8-6-6-2h-9l-8 4-4 5-3 7v12l3 7 7 6 6 2 12-1 9-6h6l2 3-1 4-7 6-7 3-5 1h-12l-10-4-8-7-4-6-2-5-1-11 2-11 5-8 8-7 7-3z" fill="#FEFEFE"/>
<path transform="translate(707,910)" d="m0 0 11 1 7 5 3 6 1 10-2 7-4 5-5 3-4 1h-7l-8-3-6-8-1-3v-10l4-8 5-4z" fill="#FDFDFD"/>
<path transform="translate(1240,273)" d="m0 0 4 2 4 8v15l-8 31-6 9-7 31-5-2-3-3 1-11 15-68 4-11z" fill="#FEFEFE"/>
<path transform="translate(257,770)" d="m0 0h7l2 3v81l-1 2h-9l-1-10v-75z" fill="#E9E9E9"/>
<path transform="translate(533,794)" d="m0 0h10l1 2-1 60h-10l-1-1v-60z" fill="#fff"/>
<path transform="translate(333,794)" d="m0 0h9l1 1v24l-1 37h-9l-1-1v-60z" fill="#fff"/>
<path transform="translate(349,771)" d="m0 0h6l2 1-2 4-15 10-5 2h-6l2-4 7-7 7-5z" fill="#F7F7F7"/>
<path transform="translate(533,771)" d="m0 0h10l1 1v9l-2 2h-8l-2-2v-9z" fill="#fff"/>
<path transform="translate(1891,996)" d="m0 0 1 4-2-2z" fill="#fff"/>
<path transform="translate(403 1e3)" d="m0 0" fill="#fff"/>
<path transform="translate(1212,455)" d="m0 0" fill="#fff"/>
<path transform="translate(1201,445)" d="m0 0" fill="#fff"/>
<path transform="translate(1202,433)" d="m0 0" fill="#fff"/>
<path transform="translate(1213,393)" d="m0 0" fill="#fff"/>
<path transform="translate(1215,362)" d="m0 0" fill="#fff"/>
</svg>
