<?xml version="1.0" encoding="UTF-8"?>
<svg version="1.1" viewBox="0 0 848 840" width="212" height="210" xmlns="http://www.w3.org/2000/svg">
<path transform="translate(393,102)" d="m0 0h62l2 4v30l24 12 18 12 15 13 9 9 13 17 12 21 2 4-1 4-6 3-4-2-10-17-9-13-12-13-7-7-17-12-18-10-10-4 1 2v261l-2 3-11-7-22-12-28-13-3-3v-247l-19 1-29 1-29 3-21 5-17 7-11 7-11 9-9 10-9 14-7 16-5 21-2 19v11l2 17 4 15 5 13 8 15 13 16 11 11 11 9 16 11 17 10 21 11 20 9 27 11 23 10 19 10 18 10 19 13 12 9 13 11-1 11-14 58-2 5-3-1-7-11-12-13-11-10-16-11-13-8-25-13-36-16-39-18-25-12-18-10-14-9-16-12-13-12-7-7-10-13-10-16-7-16-6-21-3-19v-32l3-21 5-19 6-16 8-15 7-10 9-11 11-11 11-8 16-10 18-8 20-6 25-5 27-3 19-1h33v-17z" fill="#FDFDFD"/>
<path transform="translate(448,65)" d="m0 0h21l19 3 17 5 14 6 17 10 14 11 14 14 11 16 9 17 8 21 7 28 4 28 1 13 2 53 15-5 13-7 10-8 1-2h4l-2 6-12 14-12 11-10 6h-2l3 8 8 11 18 18 11 9 17 14 14 10 19 14 14 12 5 7 1 9-4 6-9 8-24 13-5 5-2 5 3 8 12 16 4 8 1 9-3 7-11 11-8 7-1 3 12 5 5 4 2 9-3 7-7 8-6 10-4 12v9l4 17 11 29 2 9-1 10-6 9-8 7-14 7-14 4-14 2-28 1-2-1h-43l-24 3-26 6-21 7-10 6-9 8-17 11-15 8-20 8-20 6-21 4-16 2-14 1h-15l-23-2-25-4-22-6-23-9-18-10-16-12-12-11-9-9-11-15-9-15-8-18-6-18-5-23-2-20v-8l1-3h5l1 2 3 26 5 21 6 16 7 13 10 14 5 6 6 5 5 5 12 9 16 8 14 5 20 4 10 1h22l19-3 16-5 15-8 10-8 9-9 7-10 8-16 6-16 5-21 3-23 1-16 1-42 1-7 2-1 14 10 14 11 7 7 10 14 7 15 2 6-1 9-6 21-8 20-10 19-12 16-11 12-10 9-14 9-15 8-17 6-19 5-19 3-16 1h-11l-25-2-11-1 16 8 18 6 23 5 19 2h20l23-2 20-4 15-5 21-10 14-10 12-11 11-13 9-16 6-14 4-13 3-18v-31l-3-16 1-8 9-39 17-71 6-27 9-36 3-14-1-8-3-4 1-7 7-17 2-6h2v9l-1 7 16 13 2 2v8l-3 1-11-8-5-1v5l5 2 11 6 1 5-2 4-1 11-2 6-3 19-5 23-6 31-7 37 6 15 5 16 3 17 1 13v13l-3 26-5 19-6 16-1 2 7-1 20-4 30-3h11l17 1h32l16-4 5-1-4-13-4-14-1-7v-19l4-19 8-21 4-7-1-5-5-10-2-8 1-9 5-10 9-10 1-3-10-15-6-13-2-9v-10l3-10 6-9 10-9 2-2-16-13-10-9-8-7-16-16-11-14-10-15-7-15-4-12-2-12v-37l2-31v-24l-2-18-4-15-6-15-8-16-9-14-7-9-8-9-11-9-15-10-19-9-15-5-14-3-8-1h-42v-3l18-3zm76 315-2 5 8 6 3 2h4l1-4-12-9zm-2 1m-1 12-1 1v5l11 7h5v-4l-11-7zm-4 13-1 4 5 5 9 5 3-3-5-5-9-6zm-3 14-1 4 5 4 9 5 2-5-8-6-4-2zm-1 12-2 1v5l10 7h5l1-4-10-7zm-4 13-1 5 8 6 5 3h3l-1-5-9-7zm-19 102-4 5-1 6 4 5 6 1 5-3 3-5-2-5-2-3z" fill="#FEFEFE"/>
<path transform="translate(552,261)" d="m0 0 4 2 4 8v15l-8 31-6 9-7 31-5-2-3-3 1-11 15-68 4-11z" fill="#FEFEFE"/>
<path transform="translate(524,443)" d="m0 0" fill="#fff"/>
<path transform="translate(513,433)" d="m0 0" fill="#fff"/>
<path transform="translate(514,421)" d="m0 0" fill="#fff"/>
<path transform="translate(525,381)" d="m0 0" fill="#fff"/>
<path transform="translate(527,350)" d="m0 0" fill="#fff"/>
</svg>
