<?xml version="1.0" standalone="no"?>
<!DOCTYPE svg PUBLIC "-//W3C//DTD SVG 20010904//EN"
 "http://www.w3.org/TR/2001/REC-SVG-20010904/DTD/svg10.dtd">
<svg version="1.0" xmlns="http://www.w3.org/2000/svg"
 width="588.000000pt" height="356.000000pt" viewBox="0 0 588.000000 356.000000"
 preserveAspectRatio="xMidYMid meet">

<g transform="translate(0.000000,356.000000) scale(0.100000,-0.100000)"
fill="#000000" stroke="none">
<path d="M3095 3121 c-14 -6 2 -9 56 -13 60 -4 87 -11 137 -38 76 -40 115 -83
156 -170 31 -65 31 -66 31 -230 0 -154 2 -168 24 -210 13 -25 58 -79 101 -121
l77 -75 -23 -28 c-30 -34 -31 -80 -3 -125 l20 -33 -20 -40 c-15 -31 -17 -46
-10 -66 8 -20 5 -45 -12 -102 -20 -72 -21 -79 -6 -128 14 -49 14 -53 -3 -62
-10 -6 -70 -10 -132 -10 -62 0 -131 -5 -153 -10 -22 -5 -41 -8 -42 -6 -2 2 4
23 13 47 22 63 23 182 1 246 -17 49 -17 57 -3 136 20 102 20 94 -4 100 -11 3
-20 10 -20 16 0 8 6 9 19 1 28 -14 31 -13 31 13 0 12 -9 28 -21 35 -27 17 -18
27 10 12 27 -14 28 1 1 18 -11 7 -20 18 -20 24 0 9 3 9 12 0 7 -7 19 -12 27
-12 11 0 8 6 -9 20 -29 22 -36 18 -45 -32 -6 -31 -4 -37 14 -43 12 -3 21 -11
21 -16 0 -13 -14 -11 -28 3 -6 6 -13 10 -16 7 -2 -2 -22 -83 -44 -179 -33
-142 -40 -192 -39 -265 1 -77 -3 -98 -25 -146 -49 -107 -140 -169 -273 -188
-81 -12 -180 -1 -245 27 l-44 18 94 0 c60 0 116 6 151 17 118 35 207 126 249
253 l22 64 -22 45 c-19 39 -94 115 -114 115 -3 0 -6 -30 -6 -67 0 -262 -96
-393 -288 -393 -68 0 -141 24 -194 64 -57 43 -107 137 -115 212 -6 61 -23 84
-23 32 0 -46 25 -139 51 -190 12 -23 44 -66 72 -95 160 -170 503 -186 697 -33
57 45 128 61 305 69 164 7 173 9 213 44 27 25 28 57 2 125 -26 68 -25 92 5
136 32 47 32 64 -2 77 l-26 10 31 32 c39 40 39 50 6 99 -31 44 -28 59 18 81
47 22 71 51 63 76 -3 11 -38 44 -78 72 -82 60 -187 157 -187 173 0 6 16 23 35
39 19 15 40 38 46 50 11 21 11 21 -7 6 -10 -9 -34 -24 -52 -33 -40 -20 -39
-23 -46 114 -11 222 -94 362 -246 415 -56 19 -139 27 -165 16z m215 -972 c0
-6 -7 -6 -20 1 -11 6 -20 15 -20 21 0 6 7 6 20 -1 11 -6 20 -15 20 -21z m-52
-246 c5 -17 -26 -29 -40 -15 -6 6 -7 15 -3 22 9 14 37 9 43 -7z"/>
<path d="M2980 3006 c0 -23 -2 -23 -112 -28 -229 -11 -358 -92 -413 -258 -24
-72 -25 -188 -1 -260 41 -128 128 -201 377 -316 188 -86 246 -121 294 -176
l34 -40 10 38 c5 22 15 61 22 88 l12 50 -44 38 c-24 21 -84 58 -134 82 -49 24
-142 68 -205 99 -131 63 -194 116 -236 199 -23 45 -27 65 -27 135 0 69 4 91
28 138 48 99 126 138 300 151 l95 7 1 -314 0 -314 72 -35 c40 -19 75 -36 80
-38 4 -2 7 145 7 327 l0 331 41 -21 c53 -27 120 -89 145 -134 10 -19 24 -35
31 -35 55 0 -102 183 -182 211 -33 12 -35 16 -35 56 l0 43 -80 0 c-77 0 -80
-1 -80 -24z"/>
<path d="M3377 2623 c-15 -25 -48 -206 -39 -215 6 -6 12 3 16 26 4 19 13 48
21 63 20 37 30 112 17 125 -5 5 -12 6 -15 1z"/>
<path d="M3302 2414 c-15 -32 -7 -66 20 -83 29 -18 35 -5 7 18 -26 22 -20 27
12 11 27 -15 24 2 -5 29 -14 13 -22 29 -19 37 9 25 -3 15 -15 -12z"/>
<path d="M920 1285 c0 -63 4 -105 10 -105 6 0 10 42 10 105 0 63 -4 105 -10
105 -6 0 -10 -42 -10 -105z"/>
<path d="M1125 1370 c-23 -26 -8 -26 25 0 18 14 21 20 9 20 -9 0 -24 -9 -34
-20z"/>
<path d="M1610 1375 c0 -8 7 -15 15 -15 8 0 15 7 15 15 0 8 -7 15 -15 15 -8 0
-15 -7 -15 -15z"/>
<path d="M619 1352 c-68 -61 -24 -172 69 -172 38 0 83 22 70 35 -3 4 -15 2
-26 -4 -55 -29 -122 9 -122 69 0 42 39 80 83 80 18 0 38 -5 44 -11 6 -6 16 -8
23 -4 20 12 -22 34 -67 35 -33 0 -50 -6 -74 -28z"/>
<path d="M1110 1255 c0 -60 3 -75 15 -75 12 0 15 15 15 75 0 60 -3 75 -15 75
-12 0 -15 -15 -15 -75z"/>
<path d="M1300 1253 c0 -58 3 -73 15 -73 11 0 15 13 15 53 0 57 12 77 45 77
33 0 45 -20 45 -77 0 -40 4 -53 15 -53 21 0 21 98 0 128 -14 19 -24 21 -75 20
l-60 -2 0 -73z"/>
<path d="M1610 1255 c0 -60 3 -75 15 -75 12 0 15 15 15 75 0 60 -3 75 -15 75
-12 0 -15 -15 -15 -75z"/>
<path d="M1812 1307 c-28 -29 -28 -67 -1 -101 22 -28 64 -35 100 -15 29 15 13
29 -20 16 -36 -13 -59 -4 -71 29 -15 38 10 74 50 74 16 0 32 -5 35 -10 4 -6
11 -8 16 -4 19 12 -14 34 -50 34 -26 0 -44 -7 -59 -23z"/>
<path d="M2087 1323 c-15 -14 -5 -20 35 -19 33 1 43 -3 46 -16 3 -13 -3 -18
-22 -18 -45 0 -76 -18 -76 -44 0 -35 21 -46 79 -44 l51 2 0 57 c0 39 -5 63
-16 73 -15 16 -84 22 -97 9z m81 -95 c-2 -17 -11 -24 -32 -26 -16 -2 -33 1
-39 7 -16 16 11 41 45 41 25 0 29 -4 26 -22z"/>
<path d="M3353 1058 c-80 -18 -127 -91 -103 -163 15 -45 47 -67 156 -106 131
-48 168 -94 130 -167 -40 -78 -189 -73 -231 8 -18 34 -20 80 -3 80 6 0 9 3 6
6 -3 3 -24 -4 -47 -16 -50 -25 -52 -47 -10 -88 90 -88 301 -69 352 31 41 81
-6 154 -129 196 -138 48 -164 69 -164 131 0 46 38 80 90 80 55 0 89 -19 145
-82 47 -53 47 -53 41 -20 -19 102 -13 95 -91 107 -81 12 -101 13 -142 3z"/>
<path d="M608 1044 c22 -15 22 -20 22 -219 0 -218 -6 -255 -45 -255 -24 0 -76
47 -113 103 -14 20 -27 36 -29 34 -2 -3 2 -36 8 -76 l12 -71 79 0 c85 0 126
14 152 52 13 19 16 58 16 226 0 201 0 203 23 212 16 6 -2 9 -63 9 -79 1 -83 0
-62 -15z"/>
<path d="M4502 1031 c-49 -15 -51 -17 -30 -26 23 -10 23 -12 28 -230 4 -184 7
-216 18 -198 l12 22 36 -21 c71 -42 185 -23 233 38 91 116 13 287 -129 283
l-45 -2 42 -6 c23 -4 48 -13 57 -20 33 -28 47 -155 26 -232 -13 -48 -41 -71
-86 -72 -29 -1 -42 5 -65 31 -28 31 -29 35 -29 141 0 106 1 110 26 130 15 12
23 21 19 21 -5 0 -17 -7 -27 -17 -17 -15 -18 -13 -18 75 0 50 -3 93 -7 95 -5
2 -32 -3 -61 -12z"/>
<path d="M2020 1025 c-31 -38 27 -96 65 -65 18 15 20 51 3 68 -17 17 -53 15
-68 -3z"/>
<path d="M862 883 c-55 -27 -53 -99 3 -125 32 -15 32 -24 -2 -33 -95 -23 -98
-139 -5 -165 49 -13 105 2 130 35 22 28 32 31 32 12 0 -45 99 -70 126 -32 8
10 14 23 14 29 0 6 -7 0 -16 -12 -18 -26 -49 -29 -58 -6 -3 9 -6 66 -6 128 0
87 -4 117 -16 135 -34 49 -137 66 -202 34z m128 -13 c15 -15 20 -33 20 -69 l0
-49 -47 -4 c-66 -5 -107 17 -111 59 -7 68 89 112 138 63z m20 -174 c0 -105
-110 -146 -143 -53 -16 44 44 96 111 97 31 0 32 -1 32 -44z"/>
<path d="M1214 888 c-32 -10 -32 -10 -12 -30 18 -18 20 -31 17 -145 -4 -109
-6 -126 -23 -139 -18 -13 -12 -14 54 -14 66 0 72 1 54 14 -16 12 -19 27 -19
98 0 99 7 127 41 167 31 37 74 41 104 11 18 -18 20 -33 20 -145 0 -108 -2
-125 -17 -134 -13 -8 1 -10 57 -10 41 0 68 3 60 6 -27 10 -30 26 -30 156 0
124 -1 129 -26 154 -23 22 -32 25 -80 21 -57 -5 -83 -21 -115 -73 l-19 -30 0
53 c0 57 -4 60 -66 40z"/>
<path d="M1680 882 c-45 -22 -54 -71 -19 -108 12 -13 26 -24 31 -24 4 0 -1 9
-12 20 -47 47 0 120 79 120 39 0 63 -31 69 -90 l5 -50 -44 -1 c-70 -3 -72 -3
-120 -25 -84 -39 -87 -118 -6 -158 33 -16 45 -17 77 -7 22 6 49 24 62 39 l23
28 15 -30 c19 -38 60 -52 97 -34 15 7 29 22 30 33 3 16 1 16 -7 -3 -7 -17 -17
-22 -32 -20 -22 3 -23 8 -28 129 -4 109 -8 130 -25 149 -44 50 -132 64 -195
32z m150 -179 c0 -48 -32 -101 -65 -109 -58 -14 -101 38 -76 92 13 29 62 53
109 54 30 0 32 -2 32 -37z"/>
<path d="M2050 893 c-8 -3 -26 -10 -40 -15 l-25 -10 23 -9 c21 -8 22 -13 22
-143 0 -118 -2 -136 -17 -145 -13 -8 1 -10 57 -10 41 0 68 3 60 6 -27 11 -30
26 -30 181 0 162 0 163 -50 145z"/>
<path d="M2238 886 c-35 -11 -36 -12 -18 -24 18 -11 20 -23 20 -140 0 -129 -3
-145 -30 -155 -8 -3 21 -5 65 -6 60 0 74 3 57 10 -23 9 -24 12 -22 122 1 61 2
133 1 160 -1 52 -6 54 -73 33z"/>
<path d="M2379 885 c-24 -13 -59 -55 -59 -71 0 -3 13 8 29 25 35 37 78 41 107
10 16 -18 20 -40 22 -134 3 -104 2 -115 -17 -134 l-21 -21 72 0 c59 0 69 2 55
13 -13 10 -16 36 -19 144 -3 123 -5 133 -27 157 -20 21 -34 26 -70 26 -25 -1
-58 -7 -72 -15z"/>
<path d="M2702 883 c-55 -27 -53 -99 3 -125 32 -15 32 -24 -2 -33 -95 -23 -98
-139 -5 -165 49 -13 105 2 130 35 22 28 32 31 32 12 0 -45 99 -70 126 -32 8
10 14 24 13 29 0 6 -7 1 -16 -11 -18 -27 -48 -30 -57 -7 -3 9 -6 66 -6 128 0
87 -4 117 -16 135 -34 49 -137 66 -202 34z m128 -13 c15 -15 20 -33 20 -69 l0
-49 -47 -4 c-66 -5 -107 17 -111 59 -7 68 89 112 138 63z m20 -174 c0 -56 -38
-106 -78 -106 -33 0 -45 8 -61 38 -27 51 31 111 107 112 31 0 32 -1 32 -44z"/>
<path d="M3784 886 c-65 -29 -105 -118 -90 -201 17 -88 126 -149 225 -125 52
12 93 47 110 93 14 36 5 34 -14 -3 -22 -43 -71 -70 -125 -70 -75 0 -120 49
-120 130 l0 40 138 2 c96 1 119 3 77 7 -57 6 -58 7 -33 18 28 13 45 51 34 78
-15 40 -139 58 -202 31z m134 -12 c28 -19 29 -65 1 -90 -14 -12 -40 -19 -85
-22 -60 -4 -64 -3 -64 17 0 33 26 88 47 100 27 15 75 13 101 -5z"/>
<path d="M4160 893 c-29 -11 -60 -47 -60 -70 0 -24 40 -73 60 -73 21 0 9 -18
-16 -24 -38 -10 -74 -50 -74 -83 0 -93 141 -121 204 -40 23 28 26 29 26 11 0
-51 96 -81 126 -39 8 10 14 23 14 29 0 6 -7 0 -16 -12 -20 -29 -50 -28 -58 1
-3 12 -6 69 -6 127 0 119 -9 142 -66 166 -33 14 -105 18 -134 7z m110 -23 c15
-15 20 -33 20 -69 l0 -49 -47 -4 c-66 -5 -107 17 -111 59 -7 68 89 112 138 63z
m20 -171 c0 -65 -31 -108 -79 -109 -36 0 -61 28 -61 67 0 49 42 79 113 82 25
1 27 -2 27 -40z"/>
<path d="M4933 887 c-31 -12 -58 -31 -38 -27 33 7 35 0 35 -140 0 -122 -2
-140 -17 -149 -13 -8 1 -10 57 -10 41 0 68 3 60 6 -25 10 -30 25 -30 93 0 82
13 130 46 165 22 24 31 27 69 22 l45 -5 -17 29 c-12 20 -25 29 -43 29 -29 0
-73 -40 -89 -80 -8 -22 -10 -18 -10 28 -1 58 -7 61 -68 39z"/>
<path d="M5273 886 c-57 -26 -65 -74 -20 -116 27 -26 43 -26 17 0 -44 44 -4
120 63 120 52 0 76 -26 84 -87 l6 -53 -44 -2 c-24 0 -50 -1 -57 -1 -8 1 -37
-11 -65 -25 -87 -45 -88 -114 -3 -156 32 -16 44 -17 76 -7 22 6 49 24 62 39
l23 28 15 -30 c19 -38 60 -52 97 -34 15 7 29 22 30 33 3 18 2 17 -9 -2 -7 -14
-20 -23 -35 -23 -23 0 -23 1 -23 118 0 126 -8 152 -52 185 -35 26 -121 33
-165 13z m145 -191 c-10 -83 -62 -125 -117 -94 -30 17 -41 70 -19 96 19 23 67
42 107 43 l34 0 -5 -45z"/>
</g>
</svg>
